# xmcd
# Copyright (C) 1995-1998 Ti Kan
#
# Track frame offsets:
#       150
#       13783
#       30147
#       49681
#       62978
#
# Disc length: 1030 seconds
#
# Revision: 0
# Processed by: cddbd v1.5.2PL0 Copyright (c) Steve Scherf et al.
# Submitted via: CD-Import v1.0
#
DISCID=35040405
DTITLE=Fertil - La Comédie Humaine
DYEAR=09
DGENRE=
TTITLE0=An 2000
TTITLE1=La Comédie Humaine
TTITLE2=Déraille
TTITLE3=Bonnes Pensées Du Matin
TTITLE4=Corps À Corps
EXTD=
EXTT0=
EXTT1=
EXTT2=
EXTT3=
EXTT4=
PLAYORDER=
